<mxfile host="app.diagrams.net" modified="2021-09-09T08:40:26.976Z" agent="5.0 (Windows NT 6.1; Win64; x64) AppleWebKit/537.36 (KHTML, like Gecko) Chrome/93.0.4577.63 Safari/537.36" etag="c34MiAT2PTTsM6DOrpmf" version="15.1.2" type="github">
  <diagram id="-1v3pJAcRRlCi4pzVwLn" name="Page-1">
    <mxGraphModel dx="868" dy="460" grid="1" gridSize="10" guides="1" tooltips="1" connect="1" arrows="1" fold="1" page="1" pageScale="1" pageWidth="827" pageHeight="1169" math="0" shadow="0">
      <root>
        <mxCell id="0" />
        <mxCell id="1" parent="0" />
        <mxCell id="-jtHdTcziihZnTMje8de-1" value="" style="rounded=0;whiteSpace=wrap;html=1;" parent="1" vertex="1">
          <mxGeometry x="303.5" y="40" width="216" height="200" as="geometry" />
        </mxCell>
        <mxCell id="-jtHdTcziihZnTMje8de-2" value="&lt;font style=&quot;font-size: 17px&quot;&gt;&lt;b&gt;class Shape&lt;/b&gt;&lt;/font&gt;" style="text;html=1;strokeColor=none;fillColor=none;align=center;verticalAlign=middle;whiteSpace=wrap;rounded=0;" parent="1" vertex="1">
          <mxGeometry x="318" y="50" width="196" height="30" as="geometry" />
        </mxCell>
        <mxCell id="-jtHdTcziihZnTMje8de-5" value="" style="endArrow=none;dashed=1;html=1;dashPattern=1 3;strokeWidth=2;" parent="1" edge="1">
          <mxGeometry width="50" height="50" relative="1" as="geometry">
            <mxPoint x="522.5" y="90" as="sourcePoint" />
            <mxPoint x="302.5" y="90" as="targetPoint" />
          </mxGeometry>
        </mxCell>
        <mxCell id="-jtHdTcziihZnTMje8de-6" value="&lt;font style=&quot;font-size: 16px&quot;&gt;function Area()&lt;/font&gt;" style="text;html=1;strokeColor=none;fillColor=none;align=left;verticalAlign=middle;whiteSpace=wrap;rounded=0;" parent="1" vertex="1">
          <mxGeometry x="314" y="103" width="200" height="20" as="geometry" />
        </mxCell>
        <mxCell id="-jtHdTcziihZnTMje8de-7" value="" style="endArrow=none;dashed=1;html=1;dashPattern=1 3;strokeWidth=2;entryX=0;entryY=0.5;entryDx=0;entryDy=0;exitX=1;exitY=0.5;exitDx=0;exitDy=0;" parent="1" edge="1">
          <mxGeometry width="50" height="50" relative="1" as="geometry">
            <mxPoint x="518.5" y="140" as="sourcePoint" />
            <mxPoint x="302.5" y="140" as="targetPoint" />
          </mxGeometry>
        </mxCell>
        <mxCell id="-jtHdTcziihZnTMje8de-8" value="&lt;font style=&quot;font-size: 17px&quot;&gt;function Perimeter()&lt;/font&gt;" style="text;html=1;strokeColor=none;fillColor=none;align=left;verticalAlign=middle;whiteSpace=wrap;rounded=0;" parent="1" vertex="1">
          <mxGeometry x="314" y="158" width="195" height="20" as="geometry" />
        </mxCell>
        <mxCell id="-jtHdTcziihZnTMje8de-9" value="" style="rounded=0;html=1;align=left;whiteSpace=wrap;labelBorderColor=none;" parent="1" vertex="1">
          <mxGeometry x="41.5" y="300" width="210" height="270" as="geometry" />
        </mxCell>
        <mxCell id="-jtHdTcziihZnTMje8de-10" value="" style="rounded=0;whiteSpace=wrap;html=1;align=left;" parent="1" vertex="1">
          <mxGeometry x="300" y="300" width="210" height="269" as="geometry" />
        </mxCell>
        <mxCell id="-jtHdTcziihZnTMje8de-11" value="" style="rounded=0;whiteSpace=wrap;html=1;align=left;" parent="1" vertex="1">
          <mxGeometry x="560" y="299" width="210" height="270" as="geometry" />
        </mxCell>
        <mxCell id="-jtHdTcziihZnTMje8de-12" value="&lt;font style=&quot;font-size: 14px&quot;&gt;&lt;b style=&quot;line-height: 160%&quot;&gt;class Rectangle extends Shape&lt;/b&gt;&lt;/font&gt;" style="text;html=1;strokeColor=none;fillColor=none;align=left;verticalAlign=middle;whiteSpace=wrap;rounded=0;" parent="1" vertex="1">
          <mxGeometry x="55" y="314" width="185" height="30" as="geometry" />
        </mxCell>
        <mxCell id="-jtHdTcziihZnTMje8de-13" value="" style="endArrow=none;dashed=1;html=1;dashPattern=1 3;strokeWidth=2;entryX=1;entryY=0.5;entryDx=0;entryDy=0;" parent="1" edge="1">
          <mxGeometry width="50" height="50" relative="1" as="geometry">
            <mxPoint x="40" y="359" as="sourcePoint" />
            <mxPoint x="250" y="359" as="targetPoint" />
          </mxGeometry>
        </mxCell>
        <mxCell id="-jtHdTcziihZnTMje8de-14" value="&lt;font style=&quot;font-size: 15px&quot;&gt;private property Width&lt;/font&gt;" style="text;html=1;strokeColor=none;fillColor=none;align=left;verticalAlign=middle;whiteSpace=wrap;rounded=0;" parent="1" vertex="1">
          <mxGeometry x="55" y="366" width="185" height="20" as="geometry" />
        </mxCell>
        <mxCell id="-jtHdTcziihZnTMje8de-15" value="&lt;font style=&quot;font-size: 15px&quot;&gt;private property Height&lt;/font&gt;" style="text;html=1;strokeColor=none;fillColor=none;align=left;verticalAlign=middle;whiteSpace=wrap;rounded=0;" parent="1" vertex="1">
          <mxGeometry x="55" y="407" width="175" height="20" as="geometry" />
        </mxCell>
        <mxCell id="-jtHdTcziihZnTMje8de-16" value="" style="endArrow=none;dashed=1;html=1;exitX=0;exitY=0.75;exitDx=0;exitDy=0;" parent="1" edge="1">
          <mxGeometry width="50" height="50" relative="1" as="geometry">
            <mxPoint x="40" y="396" as="sourcePoint" />
            <mxPoint x="250" y="396" as="targetPoint" />
          </mxGeometry>
        </mxCell>
        <mxCell id="-jtHdTcziihZnTMje8de-18" value="" style="endArrow=none;dashed=1;html=1;dashPattern=1 3;strokeWidth=2;entryX=1;entryY=0.75;entryDx=0;entryDy=0;exitX=0;exitY=0.75;exitDx=0;exitDy=0;" parent="1" edge="1">
          <mxGeometry width="50" height="50" relative="1" as="geometry">
            <mxPoint x="40" y="440" as="sourcePoint" />
            <mxPoint x="250" y="440" as="targetPoint" />
          </mxGeometry>
        </mxCell>
        <mxCell id="-jtHdTcziihZnTMje8de-19" value="&lt;font style=&quot;font-size: 15px&quot;&gt;public function Area : for calculate Rectangle area&lt;/font&gt;" style="text;html=1;strokeColor=none;fillColor=none;align=left;verticalAlign=middle;whiteSpace=wrap;rounded=0;" parent="1" vertex="1">
          <mxGeometry x="55" y="448" width="175" height="40" as="geometry" />
        </mxCell>
        <mxCell id="-jtHdTcziihZnTMje8de-20" value="" style="endArrow=none;dashed=1;html=1;entryX=1;entryY=0.75;entryDx=0;entryDy=0;exitX=0;exitY=0.75;exitDx=0;exitDy=0;" parent="1" edge="1">
          <mxGeometry width="50" height="50" relative="1" as="geometry">
            <mxPoint x="42.5" y="498" as="sourcePoint" />
            <mxPoint x="252.5" y="498" as="targetPoint" />
          </mxGeometry>
        </mxCell>
        <mxCell id="-jtHdTcziihZnTMje8de-21" value="&lt;font style=&quot;font-size: 15px&quot;&gt;public function Perimeter for calculate Rectangle perimeter&lt;/font&gt;" style="text;html=1;strokeColor=none;fillColor=none;align=left;verticalAlign=middle;whiteSpace=wrap;rounded=0;fontColor=#000000;" parent="1" vertex="1">
          <mxGeometry x="54" y="523" width="185" height="20" as="geometry" />
        </mxCell>
        <mxCell id="-jtHdTcziihZnTMje8de-22" value="" style="endArrow=classic;html=1;fontColor=#000000;entryX=0.895;entryY=-0.007;entryDx=0;entryDy=0;entryPerimeter=0;" parent="1" target="-jtHdTcziihZnTMje8de-9" edge="1">
          <mxGeometry width="50" height="50" relative="1" as="geometry">
            <mxPoint x="300" y="240" as="sourcePoint" />
            <mxPoint x="260" y="200" as="targetPoint" />
          </mxGeometry>
        </mxCell>
        <mxCell id="-jtHdTcziihZnTMje8de-23" value="" style="endArrow=classic;html=1;fontColor=#000000;" parent="1" edge="1">
          <mxGeometry width="50" height="50" relative="1" as="geometry">
            <mxPoint x="404" y="244" as="sourcePoint" />
            <mxPoint x="400" y="296" as="targetPoint" />
          </mxGeometry>
        </mxCell>
        <mxCell id="-jtHdTcziihZnTMje8de-24" value="" style="endArrow=classic;html=1;fontColor=#000000;" parent="1" edge="1">
          <mxGeometry width="50" height="50" relative="1" as="geometry">
            <mxPoint x="523" y="243" as="sourcePoint" />
            <mxPoint x="583" y="293" as="targetPoint" />
          </mxGeometry>
        </mxCell>
        <mxCell id="-jtHdTcziihZnTMje8de-26" value="&lt;font style=&quot;font-size: 15px&quot;&gt;&lt;b&gt;class Circle extends Figure&lt;/b&gt;&lt;/font&gt;" style="text;html=1;strokeColor=none;fillColor=none;align=left;verticalAlign=middle;whiteSpace=wrap;rounded=0;fontColor=#000000;" parent="1" vertex="1">
          <mxGeometry x="314" y="310" width="186" height="40" as="geometry" />
        </mxCell>
        <mxCell id="-jtHdTcziihZnTMje8de-27" value="&lt;span style=&quot;font-size: 15px&quot;&gt;private property Radius&lt;/span&gt;" style="text;html=1;strokeColor=none;fillColor=none;align=left;verticalAlign=middle;whiteSpace=wrap;rounded=0;fontColor=#000000;" parent="1" vertex="1">
          <mxGeometry x="313" y="369" width="186" height="26" as="geometry" />
        </mxCell>
        <mxCell id="-jtHdTcziihZnTMje8de-33" value="" style="endArrow=none;dashed=1;html=1;fontColor=#000000;exitX=0.01;exitY=0.227;exitDx=0;exitDy=0;exitPerimeter=0;" parent="1" source="-jtHdTcziihZnTMje8de-10" edge="1">
          <mxGeometry width="50" height="50" relative="1" as="geometry">
            <mxPoint x="390" y="370" as="sourcePoint" />
            <mxPoint x="510" y="361" as="targetPoint" />
          </mxGeometry>
        </mxCell>
        <mxCell id="-jtHdTcziihZnTMje8de-35" value="" style="endArrow=none;dashed=1;html=1;fontColor=#000000;exitX=0;exitY=0.5;exitDx=0;exitDy=0;entryX=1;entryY=0.5;entryDx=0;entryDy=0;" parent="1" edge="1">
          <mxGeometry width="50" height="50" relative="1" as="geometry">
            <mxPoint x="300" y="401.5" as="sourcePoint" />
            <mxPoint x="510" y="401.5" as="targetPoint" />
          </mxGeometry>
        </mxCell>
        <mxCell id="-jtHdTcziihZnTMje8de-36" value="&lt;span style=&quot;font-size: 15px&quot;&gt;public function Area : for calculate Circle area&lt;/span&gt;" style="text;html=1;strokeColor=none;fillColor=none;align=left;verticalAlign=middle;whiteSpace=wrap;rounded=0;fontColor=#000000;" parent="1" vertex="1">
          <mxGeometry x="310" y="408" width="200" height="40" as="geometry" />
        </mxCell>
        <mxCell id="-jtHdTcziihZnTMje8de-37" value="&lt;span style=&quot;font-size: 15px&quot;&gt;public function Perimeter : for calculate Circle perimeter&lt;/span&gt;" style="text;html=1;strokeColor=none;fillColor=none;align=left;verticalAlign=middle;whiteSpace=wrap;rounded=0;fontColor=#000000;" parent="1" vertex="1">
          <mxGeometry x="306" y="466" width="200" height="40" as="geometry" />
        </mxCell>
        <mxCell id="-jtHdTcziihZnTMje8de-39" value="" style="endArrow=none;dashed=1;html=1;fontColor=#000000;exitX=0;exitY=0;exitDx=0;exitDy=0;entryX=1;entryY=0;entryDx=0;entryDy=0;" parent="1" edge="1">
          <mxGeometry width="50" height="50" relative="1" as="geometry">
            <mxPoint x="305" y="459" as="sourcePoint" />
            <mxPoint x="505" y="459" as="targetPoint" />
          </mxGeometry>
        </mxCell>
        <mxCell id="-jtHdTcziihZnTMje8de-40" value="&lt;font style=&quot;font-size: 15px&quot;&gt;&lt;b&gt;class Triangle extends Figure&lt;/b&gt;&lt;/font&gt;" style="text;html=1;strokeColor=none;fillColor=none;align=left;verticalAlign=middle;whiteSpace=wrap;rounded=0;fontColor=#000000;" parent="1" vertex="1">
          <mxGeometry x="570" y="310" width="190" height="40" as="geometry" />
        </mxCell>
        <mxCell id="-jtHdTcziihZnTMje8de-41" value="" style="endArrow=none;dashed=1;html=1;fontColor=#000000;" parent="1" edge="1">
          <mxGeometry width="50" height="50" relative="1" as="geometry">
            <mxPoint x="561" y="361" as="sourcePoint" />
            <mxPoint x="771" y="361" as="targetPoint" />
          </mxGeometry>
        </mxCell>
        <mxCell id="-jtHdTcziihZnTMje8de-42" value="&lt;font style=&quot;font-size: 15px&quot;&gt;private property Width&amp;nbsp;&lt;/font&gt;" style="text;html=1;strokeColor=none;fillColor=none;align=left;verticalAlign=middle;whiteSpace=wrap;rounded=0;fontColor=#000000;" parent="1" vertex="1">
          <mxGeometry x="570" y="370" width="190" height="20" as="geometry" />
        </mxCell>
        <mxCell id="-jtHdTcziihZnTMje8de-43" value="" style="endArrow=none;dashed=1;html=1;fontColor=#000000;" parent="1" edge="1">
          <mxGeometry width="50" height="50" relative="1" as="geometry">
            <mxPoint x="559" y="399" as="sourcePoint" />
            <mxPoint x="771" y="399" as="targetPoint" />
          </mxGeometry>
        </mxCell>
        <mxCell id="-jtHdTcziihZnTMje8de-45" value="&lt;font style=&quot;font-size: 15px&quot;&gt;private property Height&lt;/font&gt;" style="text;html=1;strokeColor=none;fillColor=none;align=left;verticalAlign=middle;whiteSpace=wrap;rounded=0;fontColor=#000000;" parent="1" vertex="1">
          <mxGeometry x="570" y="409" width="190" height="20" as="geometry" />
        </mxCell>
        <mxCell id="-jtHdTcziihZnTMje8de-46" value="" style="endArrow=none;dashed=1;html=1;fontColor=#000000;entryX=0.995;entryY=0.574;entryDx=0;entryDy=0;entryPerimeter=0;" parent="1" edge="1">
          <mxGeometry width="50" height="50" relative="1" as="geometry">
            <mxPoint x="558" y="440" as="sourcePoint" />
            <mxPoint x="768.95" y="439.98" as="targetPoint" />
          </mxGeometry>
        </mxCell>
        <mxCell id="-jtHdTcziihZnTMje8de-48" value="&lt;span style=&quot;font-size: 15px&quot;&gt;public function Area : for calculate Triangle area&lt;/span&gt;" style="text;html=1;strokeColor=none;fillColor=none;align=left;verticalAlign=middle;whiteSpace=wrap;rounded=0;fontColor=#000000;" parent="1" vertex="1">
          <mxGeometry x="570" y="448" width="190" height="42" as="geometry" />
        </mxCell>
        <mxCell id="-jtHdTcziihZnTMje8de-49" value="&lt;span style=&quot;font-size: 15px&quot;&gt;public function Perimeter for calculate Triangle perimeter&lt;/span&gt;" style="text;html=1;strokeColor=none;fillColor=none;align=left;verticalAlign=middle;whiteSpace=wrap;rounded=0;fontColor=#000000;" parent="1" vertex="1">
          <mxGeometry x="570" y="499" width="190" height="40" as="geometry" />
        </mxCell>
        <mxCell id="-jtHdTcziihZnTMje8de-50" value="" style="endArrow=none;dashed=1;html=1;fontColor=#000000;entryX=1.01;entryY=0.722;entryDx=0;entryDy=0;entryPerimeter=0;" parent="1" target="-jtHdTcziihZnTMje8de-11" edge="1">
          <mxGeometry width="50" height="50" relative="1" as="geometry">
            <mxPoint x="559" y="494" as="sourcePoint" />
            <mxPoint x="680" y="490" as="targetPoint" />
          </mxGeometry>
        </mxCell>
      </root>
    </mxGraphModel>
  </diagram>
</mxfile>
